<?xml version="1.0" encoding="UTF-8"?>
<svg id="Layer_1" xmlns="http://www.w3.org/2000/svg" version="1.1" viewBox="0 0 360 360">
  <!-- Generator: Adobe Illustrator 29.2.1, SVG Export Plug-In . SVG Version: 2.1.0 Build 116)  -->
  <defs>
    <style>
      .st0, .st1, .st2, .st3, .st4 {
        fill: none;
      }

      .st5 {
        fill: #d4a276;
      }

      .st6 {
        fill: #f79978;
      }

      .st1 {
        stroke: #f79978;
      }

      .st1, .st7, .st2, .st3 {
        stroke-width: 2px;
      }

      .st1, .st7, .st2, .st3, .st4 {
        stroke-miterlimit: 10;
      }

      .st1, .st2, .st3, .st4 {
        stroke-linecap: round;
      }

      .st8 {
        fill: #f9a680;
      }

      .st9 {
        fill: #f3d5b5;
      }

      .st10 {
        fill: #d1d3d4;
      }

      .st11 {
        fill: #abbac4;
      }

      .st12 {
        fill: #222323;
      }

      .st13, .st14, .st15, .st16 {
        fill: #231f20;
      }

      .st7 {
        stroke: #231f20;
      }

      .st7, .st17 {
        fill: #fff;
      }

      .st18 {
        fill: #dae0f2;
      }

      .st19 {
        fill: #ffc42c;
      }

      .st20 {
        fill: #e6e6e6;
      }

      .st21 {
        fill: #be1e2d;
      }

      .st22 {
        fill: #b11e3c;
      }

      .st23 {
        fill: #e7bb90;
      }

      .st24 {
        fill: #ee8772;
      }

      .st14 {
        font-family: Times-Bold, Times;
        font-size: 7.5px;
      }

      .st14, .st15 {
        font-weight: 700;
      }

      .st15 {
        font-family: Helvetica-Bold, Helvetica;
        font-size: 20px;
      }

      .st25 {
        fill: #67091b;
      }

      .st2 {
        stroke: #f2a284;
      }

      .st26 {
        fill: #f5c296;
      }

      .st27 {
        fill: #fab080;
      }

      .st28 {
        fill: #cee3a5;
      }

      .st3 {
        stroke: #f3af89;
      }

      .st29 {
        fill: #d2dfe9;
      }

      .st4 {
        stroke: #fff;
        stroke-width: 5px;
      }

      .st30 {
        fill: #9ed196;
      }

      .st31 {
        fill: #f2a284;
      }

      .st16 {
        font-family: Times-Roman, Times;
        font-size: 8px;
      }

      .st32 {
        fill: #ef4f79;
      }

      .st33 {
        fill: #f3af89;
      }

      .st34 {
        fill: #f47b67;
      }

      .st35 {
        fill: #f18e7e;
      }

      .st36 {
        fill: #333;
      }

      .st37 {
        fill: #ee2962;
      }

      .st38 {
        fill: #fed31e;
      }
    </style>
  </defs>
  <rect class="st17" x="760.1" y="0" width="360" height="360"/>
  <rect class="st17" x="379.9" y="0" width="360" height="360"/>
  <rect class="st17" x=".4" y="-.6" width="360" height="360"/>
  <rect class="st31" x="910.1" y="211" width="61.8" height="43.3"/>
  <circle class="st29" cx="1008.4" cy="146.5" r="15.8"/>
  <circle class="st29" cx="870.6" cy="148" r="15.8"/>
  <g>
    <g>
      <path class="st31" d="M999.9,134c-9.4,0-17,7.6-17,17s7.6,17,17,17,17-7.6,17-17-7.6-17-17-17ZM999.9,159.6c-4.7,0-8.5-3.8-8.5-8.5s3.8-8.5,8.5-8.5,8.5,3.8,8.5,8.5-3.8,8.5-8.5,8.5Z"/>
      <circle class="st31" cx="999.9" cy="151.1" r="8.5" transform="translate(843.2 1150.1) rotate(-89.7)"/>
    </g>
    <circle class="st35" cx="999.9" cy="151.1" r="9.5"/>
  </g>
  <g>
    <g>
      <path class="st31" d="M882.1,134c-9.4,0-17,7.6-17,17s7.6,17,17,17,17-7.6,17-17-7.6-17-17-17ZM882.1,159.6c-4.7,0-8.5-3.8-8.5-8.5s3.8-8.5,8.5-8.5,8.5,3.8,8.5,8.5-3.8,8.5-8.5,8.5Z"/>
      <circle class="st31" cx="882.1" cy="151.1" r="8.5" transform="translate(726.1 1032.4) rotate(-89.7)"/>
    </g>
    <circle class="st35" cx="882.1" cy="151.1" r="9.5"/>
  </g>
  <text class="st14" transform="translate(180.5 282.8)"><tspan x="0" y="0">Charles Robert Darwin (12 February 1809 – 19 </tspan><tspan x="0" y="9">April 1882) was an English naturalist, geologist </tspan><tspan x="0" y="18">and biologist, widely known for his contributions </tspan><tspan x="0" y="27">to evolutionary biology. His proposition that all </tspan><tspan x="0" y="36">species of life have descended from a common </tspan><tspan x="0" y="45">ancestor is now generally accepted and </tspan><tspan x="0" y="54">considered a fundamental concept in science. </tspan></text>
  <text class="st16" transform="translate(17.8 331.7)"><tspan x="0" y="0">Jeffrey Spang</tspan><tspan x="0" y="9.6">NMDE 111.03</tspan></text>
  <text class="st15" transform="translate(18.2 292.4)"><tspan x="0" y="0">Charles </tspan><tspan x="0" y="19">Darwin</tspan></text>
  <rect class="st6" x="135.1" y="199.1" width="93.2" height="54.4"/>
  <g>
    <polygon class="st12" points="164.2 261.2 238.2 261.2 238.2 235.1 187.4 235.1 164.2 261.2"/>
    <polygon class="st36" points="196 261.2 122 261.2 122 235.1 172.8 235.1 196 261.2"/>
  </g>
  <line class="st7" x1="152.2" y1="283.7" x2="152.2" y2="341.3"/>
  <text/>
  <text class="st14" transform="translate(560.5 282.8)"><tspan x="0" y="0">Gaius Julius Caesar (12 July 100 BC – 15 March </tspan><tspan x="0" y="9">44 BC) was a Roman general and statesman. A </tspan><tspan x="0" y="18">member of the First Triumvirate, Caesar led the </tspan><tspan x="0" y="27">Roman armies in the Gallic Wars before </tspan><tspan x="0" y="36">defeating his political rival Pompey in a civil war, </tspan><tspan x="0" y="45">and subsequently became dictator from 49 BC </tspan><tspan x="0" y="54" xml:space="preserve">until his assassination in 44 BC. (wikipedia)  </tspan></text>
  <text class="st16" transform="translate(397.8 331.7)"><tspan x="0" y="0">Jeffrey Spang</tspan><tspan x="0" y="9.6">NMDE 111.03</tspan></text>
  <text class="st15" transform="translate(398.2 292.4)"><tspan x="0" y="0">Julius </tspan><tspan x="0" y="19">Caesar</tspan></text>
  <line class="st7" x1="532.2" y1="283.7" x2="532.2" y2="341.3"/>
  <text/>
  <text class="st14" transform="translate(940.5 282.8)"><tspan x="0" y="0">Elizabeth II (Elizabeth Alexandra Mary; 21 April </tspan><tspan x="0" y="9">1926 – 8 September 2022) was Queen of the </tspan><tspan x="0" y="18">United Kingdom and other Commonwealth </tspan><tspan x="0" y="27">realms from 6 February 1952 until her death in </tspan><tspan x="0" y="36">2022. She was queen regnant of 32 sovereign </tspan><tspan x="0" y="45">states over the course of her lifetime and </tspan><tspan x="0" y="54">remained the monarch of 15 realms by the time of </tspan></text>
  <text class="st16" transform="translate(777.8 331.7)"><tspan x="0" y="0">Jeffrey Spang</tspan><tspan x="0" y="9.6">NMDE 111.03</tspan></text>
  <text class="st15" transform="translate(778.2 292.4)"><tspan x="0" y="0">Queen </tspan><tspan x="0" y="19">Elizabeth II</tspan></text>
  <line class="st7" x1="912.2" y1="283.7" x2="912.2" y2="341.3"/>
  <text/>
  <path class="st8" d="M180.3,18c-36.2,0-65.6,28.9-65.6,64.4v82c0,28.5,29.4,51.6,65.6,51.6s65.6-23.1,65.6-51.6v-82c0-35.6-29.4-64.4-65.6-64.4Z"/>
  <rect class="st29" x="112" y="128.7" width="136.6" height="90.3"/>
  <path class="st29" d="M124.8,106.6c19.2,71.1-2.3,21.8-4.3,26.3-8.8,20.3-10.2-17.1-10.2-33.5s7.2-61.5,8.8-29.8c.2,4.9,3.2,28.3,5.6,37Z"/>
  <path class="st29" d="M236.2,108.3c-19.2,71.1,2.3,21.8,4.3,26.3,8.8,20.3,10.2-17.1,10.2-33.5,0-16.4-7.2-61.5-8.8-29.8-.2,4.9-3.2,28.3-5.6,37Z"/>
  <ellipse class="st29" cx="180.3" cy="219" rx="68.3" ry="28.7"/>
  <line class="st1" x1="150.2" y1="58.6" x2="209.3" y2="58.6"/>
  <line class="st1" x1="145" y1="65.6" x2="214.5" y2="65.6"/>
  <g>
    <path class="st6" d="M202.7,156.7c0-2.2-1.8-4.1-4.1-4.1h-38.9c-2.2,0-4.1,1.8-4.1,4.1v1.3s0,0,0,.1c0-.3,0-.5.1-.8.4,1.8,2,3.1,3.9,3.1h38.9c1.9,0,3.5-1.3,3.9-3.1,0,.2,0,.5.1.8,0,0,0,0,0-.1v-1.3Z"/>
    <path class="st34" d="M198.6,160.4h-38.9c-1.9,0-3.5-1.3-3.9-3.1,0,.2,0,.5-.1.8,0,0,0,.1,0,.2v1.3c0,2.2,1.8,4.1,4.1,4.1h38.9c2.2,0,4.1-1.8,4.1-4.1v-1.3c0,0,0-.1,0-.2,0-.3,0-.5-.1-.8-.4,1.8-2,3.1-3.9,3.1Z"/>
  </g>
  <path class="st29" d="M133,135.5h-2.7c-3.1,0-5.6-2.5-5.6-5.6h0c-3.9-36.8-2.8-30.2,3.9-14.9l5.1,6.9c5.8,5.1,21.5,7.4,17.1,6.8l-9.2,5.1c0,3.1-5.5,1.7-8.6,1.7Z"/>
  <path class="st29" d="M227.8,135.5h2.7c3.1,0,5.6-2.5,5.6-5.6h0c3.9-36.8,2.8-30.2-3.9-14.9l-5.1,6.9c-5.8,5.1-21.5,7.4-17.1,6.8l9.2,5.1c0,3.1,5.5,1.7,8.6,1.7Z"/>
  <g>
    <path class="st11" d="M179.8,142.9c-6.2,0-11.3-4.5-12.3-10.4,0,.2,0,.5,0,.7,0,6.8,5.5,12.4,12.4,12.4s12.4-5.5,12.4-12.4,0-.5,0-.7c-1,5.9-6.1,10.4-12.3,10.4Z"/>
    <path class="st6" d="M179.8,140.4c-6.5,0-11.8-5-12.5-11.3,0,.4,0,.8,0,1.2,0,.7,0,1.5.2,2.2,1,5.9,6.1,10.4,12.3,10.4s11.3-4.5,12.3-10.4c.1-.7.2-1.4.2-2.2s0-.8,0-1.2c-.6,6.3-6,11.3-12.5,11.3Z"/>
    <path class="st8" d="M192.3,90.2h-25v37.7c0,.4,0,.8,0,1.2.6,6.3,6,11.3,12.5,11.3s11.8-5,12.5-11.3c0-.4,0-.8,0-1.2v-37.7ZM175.5,130.3c-1.4,0-2.5-1.1-2.5-2.5v-7.4c0-1.4,1.1-2.5,2.5-2.5s2.5,1.1,2.5,2.5v7.4c0,1.4-1.1,2.5-2.5,2.5Z"/>
    <path class="st27" d="M178,120.4c0-1.4-1.1-2.5-2.5-2.5s-2.5,1.1-2.5,2.5v7.4c0,1.4,1.1,2.5,2.5,2.5s2.5-1.1,2.5-2.5v-7.4Z"/>
  </g>
  <rect class="st11" x="121.6" y="137.3" width="10.4" height="30.7" rx="4.4" ry="4.4"/>
  <rect class="st11" x="163.9" y="175.4" width="10.4" height="36.4" rx="4.4" ry="4.4"/>
  <rect class="st11" x="227.2" y="140.9" width="10.4" height="49.8" rx="4.4" ry="4.4"/>
  <rect class="st11" x="136.4" y="189.5" width="10.4" height="19.3" rx="4.4" ry="4.4"/>
  <path class="st11" d="M180.3,236.5c-32.6,0-61.5-19.5-68.3-32.4,0,2.5,0,14,0,16.1,0,15.8,30.6,28.7,68.3,28.7s68.3-12.8,68.3-28.7,0-13.5,0-16.1c-6.8,12.9-35.7,32.4-68.3,32.4Z"/>
  <rect class="st11" x="201.4" y="192.7" width="10.4" height="30.7" rx="4.4" ry="4.4"/>
  <g>
    <path class="st6" d="M137.3,92.2h24.9c3.6,0,6.5-2.8,6.8-6.3,0,.2,0,.4,0,.5,0-3.7-3.1-6.8-6.8-6.8h-24.9c-3.7,0-6.8,3.1-6.8,6.8,0-.2,0-.4,0-.5.3,3.5,3.2,6.3,6.8,6.3ZM144.3,82.2h11c1,0,1.9.8,1.9,1.9s-.8,1.9-1.9,1.9h-11c-1,0-1.9-.8-1.9-1.9s.8-1.9,1.9-1.9Z"/>
    <path class="st6" d="M169,85.9c-.3,3.5-3.2,6.3-6.8,6.3h-24.9c-3.6,0-6.5-2.8-6.8-6.3,0,.2,0,.4,0,.5v2.9c0,3.7,3.1,6.8,6.8,6.8h24.9c3.7,0,6.8-3.1,6.8-6.8v-2.9c0-.2,0-.4,0-.5Z"/>
    <path class="st6" d="M144.3,85.9h11c1,0,1.9-.8,1.9-1.9s-.8-1.9-1.9-1.9h-11c-1,0-1.9.8-1.9,1.9s.8,1.9,1.9,1.9Z"/>
  </g>
  <g>
    <path class="st29" d="M137.3,84.3h24.9c3.6,0,6.5-2.8,6.8-6.3,0,.2,0,.4,0,.5,0-3.7-3.1-6.8-6.8-6.8h-24.9c-3.7,0-6.8,3.1-6.8,6.8,0-.2,0-.4,0-.5.3,3.5,3.2,6.3,6.8,6.3ZM144.3,74.4h11c1,0,1.9.8,1.9,1.9s-.8,1.9-1.9,1.9h-11c-1,0-1.9-.8-1.9-1.9s.8-1.9,1.9-1.9Z"/>
    <path class="st11" d="M169,78.1c-.3,3.5-3.2,6.3-6.8,6.3h-24.9c-3.6,0-6.5-2.8-6.8-6.3,0,.2,0,.4,0,.5v2.9c0,3.7,3.1,6.8,6.8,6.8h24.9c3.7,0,6.8-3.1,6.8-6.8v-2.9c0-.2,0-.4,0-.5Z"/>
    <path class="st17" d="M144.3,78.1h11c1,0,1.9-.8,1.9-1.9s-.8-1.9-1.9-1.9h-11c-1,0-1.9.8-1.9,1.9s.8,1.9,1.9,1.9Z"/>
  </g>
  <rect class="st13" x="141.6" y="91.2" width="16.3" height="24.9" rx="6.9" ry="6.9"/>
  <g>
    <path class="st6" d="M198.1,92.6h24.9c3.6,0,6.5-2.8,6.8-6.3,0,.2,0,.4,0,.5,0-3.7-3.1-6.8-6.8-6.8h-24.9c-3.7,0-6.8,3.1-6.8,6.8,0-.2,0-.4,0-.5.3,3.5,3.2,6.3,6.8,6.3ZM205,82.6h11c1,0,1.9.8,1.9,1.9s-.8,1.9-1.9,1.9h-11c-1,0-1.9-.8-1.9-1.9s.8-1.9,1.9-1.9Z"/>
    <path class="st6" d="M229.8,86.3c-.3,3.5-3.2,6.3-6.8,6.3h-24.9c-3.6,0-6.5-2.8-6.8-6.3,0,.2,0,.4,0,.5v2.9c0,3.7,3.1,6.8,6.8,6.8h24.9c3.7,0,6.8-3.1,6.8-6.8v-2.9c0-.2,0-.4,0-.5Z"/>
    <path class="st6" d="M205,86.3h11c1,0,1.9-.8,1.9-1.9s-.8-1.9-1.9-1.9h-11c-1,0-1.9.8-1.9,1.9s.8,1.9,1.9,1.9Z"/>
  </g>
  <g>
    <path class="st29" d="M198.1,84.3h24.9c3.6,0,6.5-2.8,6.8-6.3,0,.2,0,.4,0,.5,0-3.7-3.1-6.8-6.8-6.8h-24.9c-3.7,0-6.8,3.1-6.8,6.8,0-.2,0-.4,0-.5.3,3.5,3.2,6.3,6.8,6.3ZM205,74.4h11c1,0,1.9.8,1.9,1.9s-.8,1.9-1.9,1.9h-11c-1,0-1.9-.8-1.9-1.9s.8-1.9,1.9-1.9Z"/>
    <path class="st11" d="M229.8,78.1c-.3,3.5-3.2,6.3-6.8,6.3h-24.9c-3.6,0-6.5-2.8-6.8-6.3,0,.2,0,.4,0,.5v2.9c0,3.7,3.1,6.8,6.8,6.8h24.9c3.7,0,6.8-3.1,6.8-6.8v-2.9c0-.2,0-.4,0-.5Z"/>
    <path class="st17" d="M205,78.1h11c1,0,1.9-.8,1.9-1.9s-.8-1.9-1.9-1.9h-11c-1,0-1.9.8-1.9,1.9s.8,1.9,1.9,1.9Z"/>
  </g>
  <rect class="st13" x="202.4" y="91.2" width="16.3" height="24.9" rx="6.9" ry="6.9"/>
  <g>
    <path class="st33" d="M490.3,104.5c-8.6,0-15.6,7-15.6,15.6s7,15.6,15.6,15.6,15.6-7,15.6-15.6-7-15.6-15.6-15.6ZM490.3,128c-4.3,0-7.8-3.5-7.8-7.8s3.5-7.8,7.8-7.8,7.8,3.5,7.8,7.8-3.5,7.8-7.8,7.8Z"/>
    <circle class="st31" cx="490.3" cy="120.1" r="7.8" transform="translate(367.4 609.7) rotate(-89.7)"/>
  </g>
  <g>
    <path class="st33" d="M630.7,105.4c-8.6,0-15.6,7-15.6,15.6s7,15.6,15.6,15.6,15.6-7,15.6-15.6-7-15.6-15.6-15.6ZM630.7,128.9c-4.3,0-7.8-3.5-7.8-7.8s3.5-7.8,7.8-7.8,7.8,3.5,7.8,7.8-3.5,7.8-7.8,7.8Z"/>
    <circle class="st31" cx="630.7" cy="121.1" r="7.8" transform="translate(506.2 751.1) rotate(-89.7)"/>
  </g>
  <rect class="st31" x="507.3" y="190.5" width="106.9" height="62.4"/>
  <ellipse class="st26" cx="560.5" cy="87.5" rx="70.2" ry="70.2"/>
  <rect class="st26" x="490.3" y="87.5" width="140.5" height="83.1"/>
  <path class="st26" d="M630.7,170.6c0,6.7-32.3,50.7-71.1,50.7s-69.4-44-69.4-50.7,31.4-12.1,70.2-12.1,70.2,5.4,70.2,12.1Z"/>
  <g>
    <path class="st33" d="M585.4,183.3c0-3.4-2.8-6.1-6.1-6.1h-38.7c-3.4,0-6.1,2.8-6.1,6.1h0c0,0,0,.1,0,.2,0-.7.2-1.3.4-1.9.9,2.3,3.1,4,5.7,4h38.7c2.6,0,4.9-1.7,5.7-4,.2.6.4,1.2.4,1.9,0,0,0-.1,0-.2h0Z"/>
    <path class="st31" d="M579.3,185.6h-38.7c-2.6,0-4.9-1.7-5.7-4-.2.6-.4,1.2-.4,1.9,0,0,0,.1,0,.2,0,3.4,2.8,6.1,6.1,6.1h38.7c3.4,0,6.1-2.8,6.1-6.1s0-.1,0-.2c0-.7-.2-1.3-.4-1.9-.9,2.3-3.1,4-5.7,4Z"/>
  </g>
  <circle class="st31" cx="552.9" cy="163.2" r="2.9"/>
  <circle class="st31" cx="566.5" cy="163.2" r="2.9"/>
  <g>
    <path class="st31" d="M579.1,112.5h29.7c2.4,0,4.4-1.6,5.2-3.7.2.5.3,1,.3,1.5,0-.1,0-.2,0-.3,0-3.1-2.5-5.6-5.6-5.6h-29.7c-3.1,0-5.6,2.5-5.6,5.6s0,.2,0,.3c0-.5.1-1.1.3-1.5.8,2.1,2.8,3.7,5.2,3.7ZM587.9,107.1h11.9c1,0,1.8.8,1.8,1.8s-.8,1.8-1.8,1.8h-11.9c-1,0-1.8-.8-1.8-1.8s.8-1.8,1.8-1.8Z"/>
    <path class="st31" d="M613.9,108.8c-.8,2.1-2.8,3.7-5.2,3.7h-29.7c-2.4,0-4.4-1.6-5.2-3.7-.2.5-.3,1-.3,1.5,0,.1,0,.2,0,.3,0,3.1,2.5,5.6,5.6,5.6h29.7c3.1,0,5.6-2.5,5.6-5.6s0-.2,0-.3c0-.5-.1-1.1-.3-1.5Z"/>
    <path class="st31" d="M587.9,110.6h11.9c1,0,1.8-.8,1.8-1.8s-.8-1.8-1.8-1.8h-11.9c-1,0-1.8.8-1.8,1.8s.8,1.8,1.8,1.8Z"/>
  </g>
  <rect class="st13" x="580.4" y="108.1" width="18.8" height="19.2" rx="6.9" ry="6.9"/>
  <g>
    <path class="st29" d="M579.1,106.7h29.7c2.4,0,4.4-1.6,5.2-3.7.2.5.3,1,.3,1.5,0-.1,0-.2,0-.3,0-3.1-2.5-5.6-5.6-5.6h-29.7c-3.1,0-5.6,2.5-5.6,5.6s0,.2,0,.3c0-.5.1-1.1.3-1.5.8,2.1,2.8,3.7,5.2,3.7ZM587.9,101.2h11.9c1,0,1.8.8,1.8,1.8s-.8,1.8-1.8,1.8h-11.9c-1,0-1.8-.8-1.8-1.8s.8-1.8,1.8-1.8Z"/>
    <path class="st11" d="M613.9,103c-.8,2.1-2.8,3.7-5.2,3.7h-29.7c-2.4,0-4.4-1.6-5.2-3.7-.2.5-.3,1-.3,1.5,0,.1,0,.2,0,.3,0,3.1,2.5,5.6,5.6,5.6h29.7c3.1,0,5.6-2.5,5.6-5.6s0-.2,0-.3c0-.5-.1-1.1-.3-1.5Z"/>
    <path class="st17" d="M587.9,104.8h11.9c1,0,1.8-.8,1.8-1.8s-.8-1.8-1.8-1.8h-11.9c-1,0-1.8.8-1.8,1.8s.8,1.8,1.8,1.8Z"/>
  </g>
  <g>
    <path class="st31" d="M512.9,112.8h29.7c2.4,0,4.4-1.6,5.2-3.7.2.5.3,1,.3,1.5,0-.1,0-.2,0-.3,0-3.1-2.5-5.6-5.6-5.6h-29.7c-3.1,0-5.6,2.5-5.6,5.6s0,.2,0,.3c0-.5.1-1.1.3-1.5.8,2.1,2.8,3.7,5.2,3.7ZM521.8,107.3h11.9c1,0,1.8.8,1.8,1.8s-.8,1.8-1.8,1.8h-11.9c-1,0-1.8-.8-1.8-1.8s.8-1.8,1.8-1.8Z"/>
    <path class="st31" d="M547.8,109.1c-.8,2.1-2.8,3.7-5.2,3.7h-29.7c-2.4,0-4.4-1.6-5.2-3.7-.2.5-.3,1-.3,1.5,0,.1,0,.2,0,.3,0,3.1,2.5,5.6,5.6,5.6h29.7c3.1,0,5.6-2.5,5.6-5.6s0-.2,0-.3c0-.5-.1-1.1-.3-1.5Z"/>
    <path class="st31" d="M521.8,110.9h11.9c1,0,1.8-.8,1.8-1.8s-.8-1.8-1.8-1.8h-11.9c-1,0-1.8.8-1.8,1.8s.8,1.8,1.8,1.8Z"/>
  </g>
  <rect class="st13" x="519.9" y="108.1" width="19.2" height="19.2" rx="6.9" ry="6.9"/>
  <g>
    <path class="st29" d="M512.9,106.9h29.7c2.4,0,4.4-1.6,5.2-3.7.2.5.3,1,.3,1.5,0-.1,0-.2,0-.3,0-3.1-2.5-5.6-5.6-5.6h-29.7c-3.1,0-5.6,2.5-5.6,5.6s0,.2,0,.3c0-.5.1-1.1.3-1.5.8,2.1,2.8,3.7,5.2,3.7ZM521.8,101.4h11.9c1,0,1.8.8,1.8,1.8s-.8,1.8-1.8,1.8h-11.9c-1,0-1.8-.8-1.8-1.8s.8-1.8,1.8-1.8Z"/>
    <path class="st11" d="M547.8,103.2c-.8,2.1-2.8,3.7-5.2,3.7h-29.7c-2.4,0-4.4-1.6-5.2-3.7-.2.5-.3,1-.3,1.5,0,.1,0,.2,0,.3,0,3.1,2.5,5.6,5.6,5.6h29.7c3.1,0,5.6-2.5,5.6-5.6s0-.2,0-.3c0-.5-.1-1.1-.3-1.5Z"/>
    <path class="st17" d="M521.8,105h11.9c1,0,1.8-.8,1.8-1.8s-.8-1.8-1.8-1.8h-11.9c-1,0-1.8.8-1.8,1.8s.8,1.8,1.8,1.8Z"/>
  </g>
  <line class="st3" x1="537.8" y1="160.4" x2="526.8" y2="176.4"/>
  <line class="st3" x1="583" y1="160.4" x2="593.9" y2="176.3"/>
  <path class="st29" d="M636.7,85.6c-1.1-37.9-34.8-68.3-76.1-68.3s-73.4,29-76,65.7c-.3,1.2-.4,2.4-.4,3.7v10.1c0,5.1,2.4,9.6,6,12.6l.9-30.7c0-8.9,6.4-16.1,15.3-16.1h108c8.9,0,15.1,7.2,15.1,16.1l1.1,30.7c3.7-3,6-7.5,6-12.6v-10.1c0-.4,0-.7,0-1.1Z"/>
  <path class="st29" d="M566.5,51.7v23.8c6.6,0,11.9-5.3,11.9-11.9s-5.3-11.9-11.9-11.9Z"/>
  <path class="st29" d="M577.8,47.5v33.4c9.2,0,16.7-7.5,16.7-16.7s-7.5-16.7-16.7-16.7Z"/>
  <path class="st11" d="M380.1,83.3c0,.6,0,1.2,0,1.8s0,1.2,0,1.8v-3.5Z"/>
  <line class="st4" x1="518.2" y1="51.7" x2="550.8" y2="51.7"/>
  <line class="st4" x1="542.9" y1="37.7" x2="584.6" y2="37.7"/>
  <path class="st11" d="M485.6,75.7c-.4,2.4-.8,4.8-.9,7.3-.3,1.2-.4,2.4-.4,3.7v10.1c0,5.1,2.4,9.6,6,12.6l.8-28.6c-2.2-1.2-4.1-3-5.5-5.1Z"/>
  <path class="st11" d="M635.4,75.7c.4,2.4.8,4.8.9,7.3.3,1.2.4,2.4.4,3.7v10.1c0,5.1-2.4,9.6-6,12.6l-.8-28.6c2.2-1.2,4.1-3,5.5-5.1Z"/>
  <path class="st10" d="M614.2,231.4c-1.5,9.8-24.8,17.6-53.4,17.6s-51.9-7.8-53.4-17.6h-13.3v30h133.3v-30h-13.3Z"/>
  <path class="st11" d="M614.2,239.8c-1.5,9.8-24.8,17.6-53.4,17.6s-51.9-7.8-53.4-17.6h-13.3v8.9h13.3c.8,5,7.2,9.5,17.1,12.7h72.7c9.9-3.2,16.3-7.7,17.1-12.7h13.3v-8.9h-13.3Z"/>
  <path class="st21" d="M614.2,231.4c-1,6-25.6,26.8-38.9,30h15.6s36.7,0,36.7,0v-30h-13.3Z"/>
  <ellipse class="st38" cx="624.3" cy="238.1" rx="9.1" ry="8.3"/>
  <circle class="st19" cx="624.3" cy="238.1" r="4.7"/>
  <path class="st21" d="M507.4,231.4c1,6,25.6,26.8,38.9,30h-52.2v-30h13.3Z"/>
  <ellipse class="st38" cx="496.7" cy="238.1" rx="9.1" ry="8.3"/>
  <circle class="st19" cx="496.7" cy="238.4" r="4.7"/>
  <path class="st26" d="M999.4,113.7c-1.3-31.4-27.1-56.4-58.8-56.4s-57.5,25-58.8,56.4h0v60.2h0c.7,32.3,26.8,61.8,58.8,61.8s58.2-29.6,58.8-61.8h0v-60.2h0Z"/>
  <circle class="st29" cx="929.8" cy="61.3" r="25.9"/>
  <circle class="st29" cx="966.3" cy="62.9" r="23.2"/>
  <circle class="st29" cx="1007.1" cy="124.3" r="13.7"/>
  <circle class="st29" cx="896" cy="71.9" r="20.7"/>
  <circle class="st29" cx="985" cy="79.8" r="16.5"/>
  <circle class="st29" cx="872.9" cy="124.3" r="16.1"/>
  <circle class="st29" cx="907.6" cy="49" r="24.4"/>
  <circle class="st29" cx="983.9" cy="54.2" r="17.7"/>
  <circle class="st29" cx="947.7" cy="41.9" r="20.7"/>
  <circle class="st31" cx="933.1" cy="174.2" r="3.2"/>
  <circle class="st31" cx="948" cy="174.2" r="3.2"/>
  <g>
    <path class="st22" d="M908.1,181.5c.5,17.3,15.3,25.9,32.7,25.9s31-8.6,31.5-25.9h-64.2Z"/>
    <path class="st17" d="M913.1,181.5c0,.1,0,.2,0,.3v3.9c0,2.3,1.9,4.2,4.2,4.2h46.5c2.3,0,4.2-1.9,4.2-4.2v-3.9c0-.1,0-.2,0-.3h-54.9Z"/>
    <rect class="st18" x="913.1" y="181.5" width="54.9" height="2.2"/>
    <rect class="st25" x="928.1" y="189.8" width="25" height="12.7" rx="5.7" ry="5.7"/>
    <g>
      <path class="st0" d="M968.3,195.1c-5.4,8.2-15.5,12.2-27.5,12.2s-6-.3-8.8-.8c0,.6-.1,1.2-.1,1.8v2.9c0,7.3,6,13.3,13.3,13.3h22.6c7.3,0,13.3-6,13.3-13.3v-2.9c0-7.1-5.7-13-12.8-13.3Z"/>
      <path class="st37" d="M968.3,195.1c-.2,0-.3,0-.5,0h-22.6c-6.7,0-12.2,5-13.1,11.5,2.8.5,5.7.8,8.8.8,12,0,22.1-4.1,27.5-12.2Z"/>
    </g>
    <rect class="st32" x="940.6" y="196.6" width="11.7" height="2.6" rx="1.2" ry="1.2"/>
  </g>
  <path class="st2" d="M953.1,154.1c3.9,5.5,16.8,5.6,20.7,0"/>
  <path class="st2" d="M905,154.1c3.9,5.5,16.8,5.6,20.7,0"/>
  <line class="st2" x1="924.9" y1="165.3" x2="914.8" y2="176.8"/>
  <line class="st2" x1="955.7" y1="165.3" x2="965.8" y2="176.8"/>
  <g>
    <rect class="st31" x="902" y="126.5" width="26.7" height="8.3" rx="3.8" ry="3.8"/>
    <path class="st31" d="M924.5,132h-18.4c-1.8,0-3.3-1.1-3.9-2.7-.2.5-.3.9-.3,1.5h0c0,2.3,1.9,4.2,4.2,4.2h18.4c2.3,0,4.2-1.9,4.2-4.2h0c0-.5-.1-1-.3-1.5-.6,1.6-2.1,2.7-3.9,2.7Z"/>
    <rect class="st31" x="909.5" y="126.9" width="11.7" height="2.9" rx="1.3" ry="1.3"/>
  </g>
  <g>
    <rect class="st13" x="907.6" y="132.2" width="15.4" height="18.7" rx="6.9" ry="6.9"/>
    <polygon class="st13" points="917.5 132.9 911 137.5 902.7 132.2 902.7 132.2 917.5 132.9"/>
  </g>
  <g>
    <rect class="st23" x="902" y="120.2" width="26.7" height="8.3" rx="3.8" ry="3.8"/>
    <path class="st5" d="M924.5,125.6h-18.4c-1.8,0-3.3-1.1-3.9-2.7-.2.5-.3.9-.3,1.5h0c0,2.3,1.9,4.2,4.2,4.2h18.4c2.3,0,4.2-1.9,4.2-4.2h0c0-.5-.1-1-.3-1.5-.6,1.6-2.1,2.7-3.9,2.7Z"/>
    <rect class="st9" x="909.5" y="120.6" width="11.7" height="2.9" rx="1.3" ry="1.3"/>
  </g>
  <g>
    <rect class="st31" x="950.1" y="126.5" width="26.7" height="8.3" rx="3.8" ry="3.8"/>
    <path class="st31" d="M972.7,132h-18.4c-1.8,0-3.3-1.1-3.9-2.7-.2.5-.3.9-.3,1.5h0c0,2.3,1.9,4.2,4.2,4.2h18.4c2.3,0,4.2-1.9,4.2-4.2h0c0-.5-.1-1-.3-1.5-.6,1.6-2.1,2.7-3.9,2.7Z"/>
    <rect class="st31" x="957.6" y="126.9" width="11.7" height="2.9" rx="1.3" ry="1.3"/>
  </g>
  <g>
    <rect class="st13" x="955.8" y="132.2" width="15.4" height="18.7" rx="6.9" ry="6.9"/>
    <polygon class="st13" points="961.1 132.9 967.6 137.5 975.9 132.2 975.9 132.2 961.1 132.9"/>
  </g>
  <path class="st33" d="M999.6,163.9c.2,8.8,2.3,71.8-59.1,71.8s-58.9-63.1-59.1-71.8c0-5.7,9.1,55.9,59.1,55.9s58.9-61.5,59.1-55.9Z"/>
  <circle class="st29" cx="860.4" cy="134" r="15.8"/>
  <circle class="st29" cx="1018.8" cy="135.3" r="15.8"/>
  <g>
    <rect class="st23" x="950.1" y="119.3" width="26.7" height="8.3" rx="3.8" ry="3.8"/>
    <path class="st5" d="M972.7,124.7h-18.4c-1.8,0-3.3-1.1-3.9-2.7-.2.5-.3.9-.3,1.5h0c0,2.3,1.9,4.2,4.2,4.2h18.4c2.3,0,4.2-1.9,4.2-4.2h0c0-.5-.1-1-.3-1.5-.6,1.6-2.1,2.7-3.9,2.7Z"/>
    <rect class="st9" x="957.6" y="119.7" width="11.7" height="2.9" rx="1.3" ry="1.3"/>
  </g>
  <polygon class="st28" points="971.9 236.9 940.6 253.3 910.1 236.9 884.5 236.9 884.5 261.5 996.7 261.5 996.7 236.9 971.9 236.9"/>
  <path class="st29" d="M866,102.5l-3,6.1h-10.4c-2.1,2.7-3.3,6-3.3,9.6,0,8.7,7.1,15.8,15.8,15.8s15.8-7.1,15.8-15.8-6.6-15.3-14.9-15.7Z"/>
  <path class="st29" d="M1019.9,109.2l-2.3-5c-1.9-.8-3.9-1.2-6-1.2-8.7,0-15.8,7.1-15.8,15.8s7.1,15.8,15.8,15.8,15.8-7.1,15.8-15.8-1.2-7-3.3-9.6h-4.2Z"/>
  <g>
    <path class="st28" d="M1054.1,106.1h-199.6s0,0,0,0h-28.7c-1,0-1.8.8-1.8,1.8v5.7c0,1,.8,1.8,1.8,1.8h228.3c1,0,1.8-.8,1.8-1.8v-5.7c0-1-.8-1.8-1.8-1.8Z"/>
    <polygon class="st30" points="1023.5 106.1 1023.4 105.8 1018.8 95.7 859.7 95.7 859.7 95.7 854.5 106.1 854.5 106.1 1023.5 106.1"/>
    <path class="st20" d="M1018.8,95.7h0s-13.4-29.4-13.4-29.4c0-8.8,12.3-49,5-49h-64.8,0s73.1,78.4,73.1,78.4h0Z"/>
    <path class="st28" d="M1023.4,105.8v.3c.1,0-4.6-10.3-4.6-10.3l-73.1-78.4h-78.1c-7.3,0,7,40.2,7,49l-14.9,29.4h159.1l4.6,10Z"/>
  </g>
  <path class="st29" d="M941.5,244.9h33.4v4h-35.3v-2.1c0-1.1.9-1.9,1.9-1.9Z" transform="translate(1920.1 23.3) rotate(152.5)"/>
  <path class="st29" d="M907.1,244.9h34.6v4h-32.7c-1.1,0-2-.9-2-2v-2h0Z" transform="translate(226.8 -407.9) rotate(28.2)"/>
  <path class="st33" d="M630.8,157.7c-11.4,19.3-43.3,47.7-71.1,47.7s-58-28.5-69.4-47.7c0,10.2,0,10.9,0,12.8,0,6.7,30.6,57.3,69.4,57.3s71.1-50.6,71.1-57.3v-12.8Z"/>
  <path class="st24" d="M614.3,196.7c-15,14.4-34.9,31-53.8,31s-38.8-15.5-53.2-29.6v13.9c12.6,14.7,32.1,31.2,53.2,31.2s40.6-17.5,53.8-32.7v-13.9Z"/>
  <path class="st24" d="M971.9,228.2c-8.7,4.9-18.2,7-31.3,7s-22.1-1.7-30.5-6.4v3.8c7.8,4.3,17.8,10.8,30.5,10.8s23.3-6.1,31.3-10.8v-4.4Z"/>
</svg>